<?xml version="1.0" standalone="no"?>
<!DOCTYPE svg PUBLIC "-//W3C//DTD SVG 20010904//EN"
 "http://www.w3.org/TR/2001/REC-SVG-20010904/DTD/svg10.dtd">
<svg version="1.0" xmlns="http://www.w3.org/2000/svg"
 width="512.000000pt" height="512.000000pt" viewBox="0 0 512.000000 512.000000"
 preserveAspectRatio="xMidYMid meet">
<metadata>
Created by potrace 1.14, written by Peter Selinger 2001-2017
</metadata>
<g transform="translate(0.000000,512.000000) scale(0.100000,-0.100000)"
fill="#000000" stroke="none">
<path d="M2667 3786 c-64 -23 -83 -47 -192 -233 -53 -90 -64 -103 -93 -109
-18 -4 -43 -19 -58 -37 -21 -25 -25 -37 -20 -68 5 -34 3 -40 -32 -67 -80 -63
-84 -64 -125 -43 -20 10 -47 16 -62 14 -33 -7 -75 -57 -75 -92 0 -25 -10 -32
-107 -79 -98 -47 -109 -50 -124 -36 -47 42 -134 7 -145 -59 -6 -37 -11 -40
-103 -87 -89 -44 -99 -47 -121 -34 -14 7 -35 13 -48 14 -30 0 -72 -42 -72 -73
0 -22 -21 -35 -184 -115 -220 -108 -247 -135 -193 -198 15 -17 33 -26 52 -27
19 0 103 36 219 93 167 84 190 92 200 78 6 -9 46 -71 89 -138 86 -133 106
-149 167 -131 19 6 40 19 47 30 7 10 24 93 38 182 14 90 31 187 36 214 l9 50
124 -120 c68 -66 141 -137 163 -158 44 -42 84 -52 125 -31 53 27 55 42 28 249
-5 44 -12 103 -15 130 -4 28 -9 59 -12 70 -5 18 -3 17 23 -5 16 -14 79 -74
142 -135 62 -60 125 -116 139 -123 65 -35 140 24 128 98 -5 27 -87 308 -111
379 -3 10 -1 11 8 4 120 -93 351 -253 371 -257 55 -10 103 63 73 109 -8 12
-105 89 -215 169 -111 81 -201 149 -201 151 0 11 155 262 168 272 17 14 27 10
74 -32 180 -161 225 -195 258 -195 36 0 70 38 70 78 0 28 -16 45 -137 152 -76
67 -149 128 -163 135 -40 21 -101 26 -143 11z m-285 -714 c10 -31 18 -61 18
-67 0 -5 -23 13 -50 40 l-51 50 28 22 c15 12 29 20 32 17 3 -2 13 -30 23 -62z
m-336 -205 c6 -50 11 -93 10 -94 -3 -4 -129 123 -130 131 -1 8 97 64 103 59 3
-2 10 -45 17 -96z m-450 -144 c-3 -16 -9 -46 -12 -68 -3 -22 -7 -41 -7 -42 -1
-1 -17 21 -34 48 l-33 49 38 19 c49 27 55 26 48 -6z"/>
<path d="M3960 3728 c-40 -11 -75 -40 -98 -83 -13 -24 -17 -64 -18 -195 -2
-91 -3 -177 -3 -191 -1 -39 -56 -115 -98 -134 -94 -45 -144 -28 -283 93 -169
147 -181 152 -229 104 -27 -27 -31 -49 -17 -83 8 -18 167 -160 248 -221 82
-63 201 -81 305 -49 90 29 189 132 214 224 7 23 12 118 13 210 1 139 4 170 16
176 17 9 365 9 374 1 3 -3 8 -21 11 -39 3 -19 8 -37 10 -40 2 -4 6 -24 9 -46
4 -22 17 -86 30 -143 l23 -103 -36 -22 c-20 -12 -92 -50 -161 -85 -148 -75
-175 -103 -175 -187 0 -47 7 -62 75 -170 41 -65 87 -127 102 -138 36 -27 116
-34 155 -14 16 9 82 56 146 106 l115 89 71 -80 c106 -121 112 -137 112 -313 0
-81 -2 -149 -4 -151 -2 -3 -35 8 -73 22 l-69 27 -540 1 c-617 0 -680 -3 -830
-45 -150 -41 -287 -106 -425 -203 -109 -76 -173 -105 -251 -114 -109 -12
-2166 -6 -2234 6 -76 15 -265 73 -265 82 0 30 65 70 288 180 136 67 255 129
265 137 21 20 22 71 1 101 -28 41 -66 30 -320 -95 -132 -64 -256 -129 -276
-145 -44 -34 -86 -94 -112 -158 -23 -58 -28 -185 -10 -269 39 -186 191 -352
381 -418 l78 -27 2120 0 2120 0 64 23 c174 61 301 204 332 376 20 110 -8 259
-64 339 -19 27 -21 45 -22 260 -2 302 -7 317 -158 488 l-59 68 26 31 c14 17
27 40 27 52 1 12 2 35 3 51 2 28 -49 126 -101 195 -28 37 -77 61 -122 61 -36
0 -31 -16 -97 300 -8 41 -17 83 -20 93 -10 32 -52 65 -91 70 -63 9 -435 5
-473 -5z m718 -664 c19 -30 32 -58 30 -63 -3 -9 -34 -33 -233 -185 -49 -38
-95 -73 -102 -78 -9 -7 -28 14 -68 76 -30 47 -55 91 -55 98 1 10 370 207 390
207 3 0 20 -24 38 -55z m-814 -925 c3 -2 6 -41 7 -85 1 -44 7 -87 13 -96 29
-39 89 -43 122 -7 13 14 17 39 18 104 1 60 5 85 14 86 16 1 176 1 201 0 18 -1
19 -15 18 -334 l0 -332 -116 0 -116 0 -1 100 c-2 136 -2 133 -24 155 -25 25
-71 26 -101 1 -22 -18 -24 -28 -29 -138 l-5 -118 -110 0 -110 0 -3 332 -2 332
32 3 c48 4 187 2 192 -3z m773 -3 c7 -7 10 -656 3 -657 -3 -1 -56 -2 -117 -3
l-113 -1 0 335 0 335 111 -2 c61 -1 113 -4 116 -7z m-1152 -341 l0 -320 -113
0 c-105 0 -113 1 -117 20 -2 11 -3 141 -3 288 1 308 -12 273 116 312 129 40
117 71 117 -300z m1427 195 c91 -143 67 -319 -58 -429 -26 -22 -50 -41 -53
-41 -6 0 -8 566 -2 578 4 11 89 -69 113 -108z m-1812 -480 l-5 -35 -103 0
c-57 0 -108 2 -113 6 -6 3 -10 72 -10 175 1 145 3 170 17 179 9 6 60 40 113
76 l96 65 5 -215 c3 -119 3 -232 0 -251z m-2861 326 c42 -14 96 -30 121 -38
l44 -13 1 -128 c0 -71 -3 -131 -7 -133 -29 -18 -158 102 -200 187 -26 50 -52
149 -40 149 3 0 39 -11 81 -24z m544 -65 c4 0 6 -67 5 -148 l-3 -148 -115 0
-114 0 -1 150 0 151 110 -2 c61 -1 113 -2 118 -3z m388 -11 c6 -61 4 -267 -2
-275 -4 -6 -54 -10 -116 -10 l-108 0 -3 140 c-1 76 -1 144 2 150 2 6 45 10
115 10 92 0 111 -2 112 -15z m387 -135 l2 -150 -115 0 c-71 0 -115 3 -116 10
-1 14 -1 257 0 275 1 13 19 16 114 15 l112 0 3 -150z m388 10 c0 -77 -1 -145
-3 -150 -2 -6 -47 -10 -116 -10 l-112 0 -3 140 c-1 76 -1 144 2 150 2 7 45 10
117 10 l114 0 1 -140z m382 -10 l-3 -150 -112 0 -113 0 -1 30 c-1 33 -1 231 0
255 1 13 21 15 116 15 l115 0 -2 -150z m388 10 c0 -77 -3 -145 -7 -150 -4 -6
-54 -10 -116 -10 l-108 0 -1 145 c-1 80 0 147 1 150 2 3 54 5 117 5 l113 0 1
-140z"/>
</g>
</svg>
